<?xml version="1.0" encoding="UTF-8" standalone="no"?>
<svg
   xmlns:dc="http://purl.org/dc/elements/1.1/"
   xmlns:cc="http://creativecommons.org/ns#"
   xmlns:rdf="http://www.w3.org/1999/02/22-rdf-syntax-ns#"
   xmlns:svg="http://www.w3.org/2000/svg"
   xmlns="http://www.w3.org/2000/svg"
   xmlns:sodipodi="http://sodipodi.sourceforge.net/DTD/sodipodi-0.dtd"
   xmlns:inkscape="http://www.inkscape.org/namespaces/inkscape"
   width="210mm"
   height="297mm"
   viewBox="0 0 210 297"
   version="1.1"
   id="svg8"
   inkscape:version="1.0.2-2 (e86c870879, 2021-01-15)"
   sodipodi:docname="ial-head-w-letters.svg">
  <defs
     id="defs2" />
  <sodipodi:namedview
     id="base"
     pagecolor="#ffffff"
     bordercolor="#666666"
     borderopacity="1.0"
     inkscape:pageopacity="0.0"
     inkscape:pageshadow="2"
     inkscape:zoom="3.959798"
     inkscape:cx="271.47791"
     inkscape:cy="280.02387"
     inkscape:document-units="mm"
     inkscape:current-layer="layer1"
     inkscape:document-rotation="0"
     showgrid="true"
     showborder="false"
     showguides="true"
     inkscape:guide-bbox="true"
     inkscape:window-width="3840"
     inkscape:window-height="2066"
     inkscape:window-x="-11"
     inkscape:window-y="-11"
     inkscape:window-maximized="1">
    <inkscape:grid
       type="xygrid"
       id="grid849"
       spacingx="2.6458333"
       spacingy="2.6458333"
       enabled="false" />
    <sodipodi:guide
       position="79.374997,228.20834"
       orientation="0,-1"
       id="guide853" />
    <sodipodi:guide
       position="23.369379,248.69103"
       orientation="0,-1"
       id="guide855" />
    <sodipodi:guide
       position="17.717634,248.69104"
       orientation="1,0"
       id="guide867" />
    <sodipodi:guide
       position="24.521205,248.69103"
       orientation="1,0"
       id="guide871" />
    <sodipodi:guide
       position="16.678199,247.15425"
       orientation="1,0"
       id="guide873" />
    <sodipodi:guide
       position="10.96131,218.94792"
       orientation="1,0"
       id="guide875" />
    <sodipodi:guide
       position="24.946427,206.262"
       orientation="0,-1"
       id="guide893" />
    <sodipodi:guide
       position="16.678199,208.75438"
       orientation="0,-1"
       id="guide899" />
    <sodipodi:guide
       position="26.718191,244.16602"
       orientation="1,0"
       id="guide907" />
    <sodipodi:guide
       position="26.009486,243.81167"
       orientation="1,0"
       id="guide909" />
    <sodipodi:guide
       position="58.208329,288.16481"
       orientation="0,-1"
       id="guide1143" />
    <sodipodi:guide
       position="58.208329,294.99549"
       orientation="0,-1"
       id="guide1145" />
    <sodipodi:guide
       position="95.06101,248.69104"
       orientation="1,0"
       id="guide1147" />
    <sodipodi:guide
       position="101.86458,247.43788"
       orientation="1,0"
       id="guide1149" />
    <sodipodi:guide
       position="43.112908,209.59302"
       orientation="1,0"
       id="guide1336" />
    <sodipodi:guide
       position="105.63828,226.03995"
       orientation="1,0"
       id="guide1393" />
    <sodipodi:guide
       position="57.381509,265.439"
       orientation="1,0"
       id="guide1395" />
    <sodipodi:guide
       position="73.759318,209.59294"
       orientation="1,0"
       id="guide1402" />
    <sodipodi:guide
       position="41.891498,209.59294"
       orientation="1,0"
       id="guide1404" />
  </sodipodi:namedview>
  <metadata
     id="metadata5">
    <rdf:RDF>
      <cc:Work
         rdf:about="">
        <dc:format>image/svg+xml</dc:format>
        <dc:type
           rdf:resource="http://purl.org/dc/dcmitype/StillImage" />
        <dc:title></dc:title>
      </cc:Work>
    </rdf:RDF>
  </metadata>
  <g
     inkscape:groupmode="layer"
     id="layer2"
     inkscape:label="image">
    <path
       style="fill:#401e66;fill-opacity:1;stroke:#401e66;stroke-width:0.264583px;stroke-linecap:butt;stroke-linejoin:miter;stroke-opacity:1"
       d="m 24.521205,48.308971 c 0,0 1.133922,-39.4737803 33.687125,-39.4737803 32.553203,0 33.309153,39.4737803 33.309153,39.4737803 l 7.087052,0 c 0,0 0.09449,-46.3044603 -40.396205,-46.3044603 -40.490696,0 -40.490696,46.3044603 -40.490696,46.3044603 h 6.803571"
       id="path1151"
       sodipodi:nodetypes="csccscc"
       inkscape:export-xdpi="96"
       inkscape:export-ydpi="96" />
  </g>
  <g
     inkscape:label="Layer 1"
     inkscape:groupmode="layer"
     id="layer1">
    <rect
       style="opacity:0.999;fill:#401e66;fill-opacity:1;stroke:#401e66;stroke-width:1;stroke-linecap:round;stroke-miterlimit:4;stroke-dasharray:none;stroke-opacity:1"
       id="rect895"
       width="7.2287941"
       height="40.892239"
       x="17.717632"
       y="49.84576"
       rx="0.5"
       ry="0.5"
       inkscape:export-xdpi="96"
       inkscape:export-ydpi="96" />
    <path
       style="fill:#401e66;fill-opacity:1;stroke:#401e66;stroke-width:0.264583px;stroke-linecap:butt;stroke-linejoin:miter;stroke-opacity:1"
       d="m 16.678199,88.245618 c 0,-0.547806 -5.669643,-2.988368 -5.669643,-19.453957 0,-16.46559 5.669643,-16.46559 5.669643,-16.46559 v 35.919547"
       id="path901"
       inkscape:export-xdpi="96"
       inkscape:export-ydpi="96" />
    <path
       id="path1198"
       style="fill:#401e66;fill-opacity:1;stroke:#401e66;stroke-width:0.999999px;stroke-linecap:round;stroke-linejoin:round;stroke-opacity:1"
       d="M 219.91797 93.392578 C 131.76548 93.393489 105.56855 167.27327 98.302734 193.40039 L 98.302734 347.95508 C 136.05408 434.64432 188.58956 442.95347 220.00195 442.95312 C 251.41436 442.9528 303.94774 434.64122 341.69727 347.95117 L 341.69727 193.39648 C 334.43091 167.26953 308.23061 93.391656 220.07812 93.392578 C 220.06681 93.392578 220.05744 93.40663 220.04688 93.417969 C 220.00364 93.411544 219.96174 93.392578 219.91797 93.392578 z M 289.73828 198.03516 C 293.14045 198.09891 296.31066 198.87658 299.3125 200.17773 L 299.3125 279.75 L 330.81641 279.75 C 333.3079 285.83908 334.02974 291.45812 330.81641 296.03711 L 278.77539 296.03711 L 278.77539 200.17773 C 282.70166 198.62156 286.33611 197.9714 289.73828 198.03516 z M 149.82031 198.13086 C 152.59934 198.19145 155.42963 198.80177 158.33008 200.17773 L 158.33008 294.82227 C 151.73351 297.32161 145.32173 298.02856 139.3125 294.82227 L 139.3125 200.17773 C 142.75901 198.88485 146.24727 198.05296 149.82031 198.13086 z M 216.95898 198.4082 C 223.03116 198.44201 228.98511 199.29181 234.93555 200.17773 L 278.77539 330.35742 C 269.0651 332.19551 259.67361 331.32136 250.29297 330.35742 L 241.27539 300.98242 L 192.61523 300.98242 L 184.04297 330.35742 C 175.15514 331.86032 166.54497 332.05097 158.33008 330.35742 L 202.52539 200.17773 C 207.44176 198.84909 212.23617 198.38175 216.95898 198.4082 z M 216.875 225.26758 L 199.31055 279.64258 L 234.93555 279.64258 L 216.875 225.26758 z "
       transform="scale(0.26458333)"
       inkscape:export-xdpi="96"
       inkscape:export-ydpi="96" />
    <rect
       style="opacity:0.999;fill:#401e66;fill-opacity:1;stroke:#401e66;stroke-width:1;stroke-linecap:round;stroke-miterlimit:4;stroke-dasharray:none;stroke-opacity:1"
       id="rect895-1"
       width="7.2287941"
       height="40.892239"
       x="-98.699036"
       y="49.84576"
       rx="0.5"
       ry="0.5"
       transform="scale(-1,1)"
       inkscape:export-xdpi="96"
       inkscape:export-ydpi="96" />
    <path
       style="fill:#401e66;fill-opacity:1;stroke:#401e66;stroke-width:0.264583px;stroke-linecap:butt;stroke-linejoin:miter;stroke-opacity:1"
       d="m 99.738469,88.245618 c 0,-0.547806 5.669641,-2.988368 5.669641,-19.453957 0,-16.46559 -5.669641,-16.46559 -5.669641,-16.46559 v 35.919547"
       id="path901-6"
       inkscape:export-xdpi="96"
       inkscape:export-ydpi="96" />
  </g>
</svg>
